<svg width="194" height="171" viewBox="0 0 194 171" fill="none" xmlns="http://www.w3.org/2000/svg">
  <path d="M72.6915 13.9308V27.8617L66.1957 30.7575C62.5956 32.401 57.7432 35.062 55.3953 36.7055L51.1691 39.7578L46.082 35.375C43.2645 33.0271 39.1948 29.2705 37.0034 27.1574C34.1076 24.4181 32.6206 23.479 31.838 23.9486C30.5075 24.8095 15.5592 40.3056 15.5592 40.9317C15.5592 41.1665 19.5506 44.9232 24.403 49.3059C29.177 53.6887 33.325 57.6801 33.4815 58.0714C33.6381 58.4628 32.5424 61.3585 31.1336 64.4108C29.7249 67.5413 27.8466 72.7067 26.9074 75.9155L25.2639 81.7853L13.0548 82.0201L0.767379 82.2549L0.297798 84.7593C0.0630069 86.0898 -0.0935201 91.803 0.0630069 97.438L0.297798 107.612L12.8982 107.847L25.5769 108.004L26.0465 112.152C26.5161 115.439 29.3336 123.969 32.3076 130.7C32.6206 131.561 30.1945 134.144 24.1682 139.544C19.4724 143.77 15.5592 147.683 15.5592 148.231C15.5592 149.17 20.6463 155.51 27.9248 163.571L31.7597 167.875L37.8643 162.397C41.2296 159.344 45.1428 155.901 46.5515 154.727L49.2125 152.535L54.0648 156.449C69.9523 169.362 93.5096 173.667 116.284 167.875C125.441 165.527 133.424 161.771 140.233 156.449L145.477 152.457L150.642 156.997C153.459 159.579 157.451 163.023 159.329 164.666L162.929 167.797L166.686 163.492C168.799 161.223 172.634 156.762 175.217 153.709L179.913 148.074L170.834 139.622L161.834 131.091L163.869 126.552C165.042 124.126 166.686 118.96 167.625 115.047L169.347 108.004H181.713H194V94.6988V81.394H181.478H169.034L168.173 78.0286C167.703 76.2286 167.077 74.0372 166.921 73.1763C166.686 72.3154 165.042 68.5588 163.321 64.7238C161.521 60.9672 160.268 57.8367 160.425 57.6801C162.382 56.3496 174.669 45.6275 176.704 43.5144L179.365 40.7752L175.373 36.2359C173.182 33.7315 169.504 29.8183 167.077 27.4704C162.068 22.5398 163.477 22.0702 152.442 31.9314C148.372 35.5316 144.616 38.6621 144.068 38.8969C143.52 39.1317 140.937 37.8795 138.198 36.1577C135.537 34.3576 130.998 31.8532 128.102 30.5227L122.78 28.1748L122.624 16.9831C122.545 10.8786 122.467 4.61748 122.467 3.13048L122.389 0.391251L97.5793 0.156464L72.6915 -6.10352e-05V13.9308ZM112.762 42.184C131.937 48.8363 145.555 61.7498 150.877 78.1852C158.781 102.447 149.312 131.404 129.433 143.927C122.78 148.153 112.841 152.222 105.171 153.788C97.5793 155.353 91.4748 154.883 82.4745 152.066C62.0477 145.648 49.056 132.735 42.8731 112.699C40.5252 105.108 40.2905 90.0812 42.4818 82.2549C48.0385 61.9846 63.1434 47.5059 85.2137 41.3231C92.0226 39.4447 106.188 39.836 112.762 42.184Z" fill="#314351"/>
  <g filter="url(#filter0_d_18_3057)">
    <path d="M121.857 71.011V82.5603L110.325 88.3349C104.013 91.5344 98.4805 94.2656 97.9351 94.4998C97.2338 94.7339 97 91.8465 97 83.4187V72.0255L108.844 66.0167C115.389 62.6612 121 59.8519 121.311 59.6958C121.701 59.5397 121.935 64.6121 121.857 71.011Z" fill="#314351"/>
    <path d="M121.857 71.011V82.5603L110.325 88.3349C104.013 91.5344 98.4805 94.2656 97.9351 94.4998C97.2338 94.7339 97 91.8465 97 83.4187V72.0255L108.844 66.0167C115.389 62.6612 121 59.8519 121.311 59.6958C121.701 59.5397 121.935 64.6121 121.857 71.011Z" fill="#314351"/>
  </g>
  <path d="M91.1729 51.7609L87.0513 53.7741L91.4571 55.7155C95.2234 57.3692 96.1472 57.513 97.8527 56.794C98.9187 56.3626 99.6293 55.6436 99.345 55.2122C99.1319 54.8527 99.1168 55.2403 99.4721 55.456C99.8274 55.7436 101.193 54.8527 102.33 54.3493L104.462 53.4865L100.411 51.5452C98.208 50.5386 96.1472 49.6758 95.7919 49.7477C95.5077 49.7477 93.3758 50.6824 91.1729 51.7609Z" fill="#314351"/>
  <path d="M80.5809 56.3665C76.8243 57.8535 76.5112 58.1666 77.7634 59.1057C78.5461 59.6536 80.7375 60.671 82.6158 61.3754C85.9811 62.7059 86.1376 62.6276 89.8943 60.9058C92.0857 59.8884 93.8075 58.8709 93.8075 58.6362C93.8075 58.1666 85.9811 54.5665 85.1985 54.723C84.9637 54.723 82.9288 55.5056 80.5809 56.3665Z" fill="#314351"/>
  <g filter="url(#filter1_d_18_3057)">
    <path d="M69.656 71.011V82.5603L81.1883 88.3349C87.4999 91.5344 93.0323 94.2657 93.5778 94.4998C94.2791 94.7339 94.5128 91.8466 94.5128 83.4187V72.0255L82.6688 66.0167C76.1234 62.6612 70.5131 59.8519 70.2014 59.6958C69.8118 59.5397 69.5781 64.6121 69.656 71.011Z" fill="#314351"/>
    <path d="M69.656 71.011V82.5603L81.1883 88.3349C87.4999 91.5344 93.0323 94.2657 93.5778 94.4998C94.2791 94.7339 94.5128 91.8466 94.5128 83.4187V72.0255L82.6688 66.0167C76.1234 62.6612 70.5131 59.8519 70.2014 59.6958C69.8118 59.5397 69.5781 64.6121 69.656 71.011Z" fill="#314351"/>
  </g>
  <path d="M92.6953 61.1365C89.0169 62.9366 88.9386 63.0148 90.5039 64.1105C91.443 64.7366 93.6344 65.7541 95.3562 66.3802C98.4085 67.4759 98.7998 67.3976 102.635 65.441L106.704 63.4062L103.887 62.467C102.322 61.9191 100.052 60.98 98.7998 60.3539C96.765 59.3365 96.2171 59.4147 92.6953 61.1365Z" fill="#314351"/>
  <path d="M102.644 56.1787C98.9657 57.9787 98.8874 58.057 100.453 59.1527C101.392 59.7788 103.583 60.7962 105.305 61.4223C108.357 62.518 108.749 62.4398 112.584 60.4832L114.119 59.4742L115.654 58.4653L113.45 57.0357C111.847 56.1787 108.192 54.7345 106.949 54.7345C106.362 54.7345 106.166 54.4569 102.644 56.1787Z" fill="#314351"/>
  <path d="M64.5523 91.2552C61.5 92.8205 59.4652 94.3075 59.8565 94.6205C60.2478 95.0118 65.648 97.6728 71.9091 100.569C78.1702 103.464 86.3878 107.299 90.2228 109.178L97.1882 112.465L110.963 105.89C118.554 102.212 127.007 98.1424 129.824 96.8902L134.911 94.464L128.337 91.4117L121.841 88.2812L109.945 93.9161C103.449 97.0467 97.8143 99.8642 97.423 100.255C97.0317 100.569 91.1619 98.0641 84.353 94.6205C77.5441 91.2552 71.5178 88.4377 70.9699 88.516C70.4221 88.5942 67.5263 89.7682 64.5523 91.2552Z" fill="#314351"/>
  <path d="M56.2562 114.656C56.2562 124.83 56.5692 130.7 57.0388 130.7C57.5084 130.7 66.1956 134.535 76.3699 139.309C86.5441 144.005 95.0749 147.918 95.3097 147.918C96.014 147.918 96.1706 138.291 95.701 127.1L95.2314 116.769L76.2916 107.69C65.8826 102.682 57.0388 98.6118 56.804 98.6118C56.491 98.6118 56.2562 105.812 56.2562 114.656Z" fill="#314351"/>
  <path d="M118.711 108.16L100.866 116.847V132.03V147.135L107.362 143.77C110.884 141.97 118.476 138.37 124.267 135.865C130.059 133.283 135.459 130.543 136.242 129.761C137.494 128.509 137.65 126.787 137.65 113.873C137.65 105.89 137.416 99.3945 137.102 99.4728C136.711 99.4728 128.493 103.386 118.711 108.16ZM132.954 120.839V126.63L128.572 129.056C124.032 131.483 107.519 138.526 106.267 138.526C105.875 138.526 105.562 135.787 105.562 132.343V126.161L110.493 124.126C113.154 123.03 119.024 120.526 123.563 118.647C128.102 116.691 132.015 115.125 132.407 115.125C132.72 115.047 132.954 117.63 132.954 120.839Z" fill="#314351"/>
  <path d="M118.945 124.752C109.71 128.743 109.241 129.057 109.006 131.404C108.693 133.831 109.319 134.457 110.649 133.126C111.119 132.657 115.502 130.622 120.432 128.509C128.415 125.143 129.433 124.439 129.667 122.639C129.824 121.465 129.667 120.526 129.276 120.526C128.963 120.604 124.267 122.482 118.945 124.752Z" fill="#314351"/>
  <defs>
    <filter id="filter0_d_18_3057" x="93.0001" y="59.6923" width="32.8718" height="42.8206" filterUnits="userSpaceOnUse" color-interpolation-filters="sRGB">
      <feFlood flood-opacity="0" result="BackgroundImageFix"/>
      <feColorMatrix in="SourceAlpha" type="matrix" values="0 0 0 0 0 0 0 0 0 0 0 0 0 0 0 0 0 0 127 0" result="hardAlpha"/>
      <feOffset dy="4"/>
      <feGaussianBlur stdDeviation="2"/>
      <feComposite in2="hardAlpha" operator="out"/>
      <feColorMatrix type="matrix" values="0 0 0 0 0 0 0 0 0 0 0 0 0 0 0 0 0 0 0.25 0"/>
      <feBlend mode="normal" in2="BackgroundImageFix" result="effect1_dropShadow_18_3057"/>
      <feBlend mode="normal" in="SourceGraphic" in2="effect1_dropShadow_18_3057" result="shape"/>
    </filter>
    <filter id="filter1_d_18_3057" x="65.6411" y="59.6923" width="32.8718" height="42.8206" filterUnits="userSpaceOnUse" color-interpolation-filters="sRGB">
      <feFlood flood-opacity="0" result="BackgroundImageFix"/>
      <feColorMatrix in="SourceAlpha" type="matrix" values="0 0 0 0 0 0 0 0 0 0 0 0 0 0 0 0 0 0 127 0" result="hardAlpha"/>
      <feOffset dy="4"/>
      <feGaussianBlur stdDeviation="2"/>
      <feComposite in2="hardAlpha" operator="out"/>
      <feColorMatrix type="matrix" values="0 0 0 0 0 0 0 0 0 0 0 0 0 0 0 0 0 0 0.25 0"/>
      <feBlend mode="normal" in2="BackgroundImageFix" result="effect1_dropShadow_18_3057"/>
      <feBlend mode="normal" in="SourceGraphic" in2="effect1_dropShadow_18_3057" result="shape"/>
    </filter>
  </defs>
</svg>
