<svg width="24" height="24" viewBox="0 0 24 24" fill="none" xmlns="http://www.w3.org/2000/svg">
  <path fill-rule="evenodd" clip-rule="evenodd" d="M19.0188 16.5878L19.0194 3.86061L10.4449 3.89865V5.0454H17.8343V16.5879L19.0188 16.5878ZM16.9735 18.6332L16.9741 5.90593L8.39961 5.94397V7.09073H15.789V18.6332L16.9735 18.6332ZM14.1512 13.8734C14.1512 11.7986 12.4693 10.1167 10.3946 10.1167C8.31981 10.1167 6.63795 11.7987 6.63795 13.8734C6.63795 15.9478 8.3197 17.63 10.3946 17.63C12.4692 17.63 14.1512 15.948 14.1512 13.8734ZM19.88 3V17.4863H17.8347V19.5316H15.7894V20.1006L14.3696 21.5202L13.3711 20.5219L12.3585 21.5178L11.3711 20.5304L10.3669 21.5178L9.37962 20.5304L8.37526 21.5178L7.38196 20.5244L6.3862 21.5203L5 20.1344V7.09076H7.50106V5.04543H9.54653V3.00011L19.88 3ZM11.6796 14.1133C11.9611 14.6593 11.8458 15.4708 11.3296 15.8592C11.1682 15.9807 10.9739 16.057 10.7714 16.0974L10.839 16.6203H9.9258L9.99542 16.0816C9.80207 16.0335 9.62035 15.9501 9.46906 15.8263C9.17925 15.5898 9.02909 15.2364 8.96048 14.8761L9.65566 14.7192C9.71566 15.0921 9.9927 15.3868 10.4034 15.3868C10.6349 15.3868 10.8093 15.328 10.9267 15.2103C11.0767 15.06 11.1554 14.8328 11.0744 14.6335C10.9682 14.3724 10.6441 14.2966 10.3919 14.2219C10.1071 14.1376 9.81112 14.0625 9.56653 13.8936C8.83703 13.3903 8.88815 12.1732 9.73289 11.8049C9.81916 11.7671 9.91017 11.7419 10.0028 11.7224L9.92581 11.1264H10.839L10.7608 11.7325C10.9127 11.7677 11.0592 11.8215 11.1891 11.9036C11.4637 12.0773 11.6125 12.3548 11.6778 12.6518L10.9486 12.7962C10.9134 12.6927 10.8577 12.5962 10.771 12.5265C10.6697 12.4454 10.535 12.408 10.4024 12.4039C10.1651 12.3961 9.85504 12.4577 9.7645 12.6968C9.7144 12.829 9.74828 12.9828 9.84933 13.0849C9.9402 13.1764 10.1604 13.2716 10.5102 13.3708C10.8599 13.47 11.1187 13.5727 11.2863 13.6787C11.4538 13.7848 11.5849 13.9296 11.6796 14.1133L11.6796 14.1133Z" fill="url(#paint0_linear_230_2036)"/>
  <defs>
    <linearGradient id="paint0_linear_230_2036" x1="5" y1="3" x2="23.0854" y2="17.5306" gradientUnits="userSpaceOnUse">
      <stop stop-color="#14ADD6"/>
      <stop offset="1" stop-color="#384295"/>
    </linearGradient>
  </defs>
</svg>
