<svg width="24" height="24" viewBox="0 0 24 24" fill="none" xmlns="http://www.w3.org/2000/svg">
  <path d="M13.8999 10.6C13.8999 10.4343 13.7656 10.3 13.5999 10.3C13.4343 10.3 13.2999 10.4343 13.2999 10.6V10.9H13.8999V10.6Z" fill="#2C67AB"/>
  <path d="M18.3999 11.5H14.4999V13C14.4999 13.3216 14.3284 13.6186 14.0499 13.7795C13.7715 13.9402 13.4284 13.9402 13.1499 13.7795C12.8715 13.6186 12.6999 13.3216 12.6999 13V12.4C12.6999 12.2343 12.8343 12.1 12.9999 12.1C13.1656 12.1 13.2999 12.2343 13.2999 12.4V13C13.2999 13.1657 13.4343 13.3 13.5999 13.3C13.7656 13.3 13.8999 13.1657 13.8999 13V11.5H11.7999V20.2H20.1999V11.5H18.3999ZM12.3999 16.9C12.3999 16.7343 12.5343 16.6 12.6999 16.6H17.1999C17.3656 16.6 17.4999 16.7343 17.4999 16.9C17.4999 17.0657 17.3656 17.2 17.1999 17.2H12.6999C12.5343 17.2 12.3999 17.0657 12.3999 16.9ZM15.6999 19H12.6999C12.5343 19 12.3999 18.8657 12.3999 18.7C12.3999 18.5343 12.5343 18.4 12.6999 18.4H15.6999C15.8656 18.4 15.9999 18.5343 15.9999 18.7C15.9999 18.8657 15.8656 19 15.6999 19ZM19.2999 17.2H18.3999C18.2343 17.2 18.0999 17.0657 18.0999 16.9C18.0999 16.7343 18.2343 16.6 18.3999 16.6H19.2999C19.4656 16.6 19.5999 16.7343 19.5999 16.9C19.5999 17.0657 19.4656 17.2 19.2999 17.2ZM19.2999 15.4H12.6999C12.5343 15.4 12.3999 15.2657 12.3999 15.1C12.3999 14.9343 12.5343 14.8 12.6999 14.8H19.2999C19.4656 14.8 19.5999 14.9343 19.5999 15.1C19.5999 15.2657 19.4656 15.4 19.2999 15.4ZM19.2999 13.6H15.3999C15.2343 13.6 15.0999 13.4657 15.0999 13.3C15.0999 13.1343 15.2343 13 15.3999 13H19.2999C19.4656 13 19.5999 13.1343 19.5999 13.3C19.5999 13.4657 19.4656 13.6 19.2999 13.6Z" fill="#2C67AB"/>
  <path d="M18.1 4.6H16V4.3C16 4.13433 15.8657 4 15.7 4C15.5343 4 15.4 4.13433 15.4 4.3V4.6H13V4.3C13 4.13433 12.8657 4 12.7 4C12.5343 4 12.4 4.13433 12.4 4.3V4.6H10V4.3C10 4.13433 9.86567 4 9.7 4C9.53433 4 9.4 4.13433 9.4 4.3V4.6H7V4.3C7 4.13433 6.86567 4 6.7 4C6.53433 4 6.4 4.13433 6.4 4.3V4.6H4.3C4.13433 4.6 4 4.73433 4 4.9V17.8C4 17.8796 4.03161 17.9559 4.08786 18.0121C4.14411 18.0684 4.22045 18.1 4.3 18.1H11.2V11.2C11.2 11.0343 11.3343 10.9 11.5 10.9H12.7V10.6C12.7 10.2784 12.8716 9.98138 13.15 9.82055C13.4284 9.65983 13.7716 9.65983 14.05 9.82055C14.3284 9.9814 14.5 10.2784 14.5 10.6V10.9H18.4V4.9C18.4 4.82045 18.3684 4.74411 18.3121 4.68786C18.2559 4.63161 18.1796 4.6 18.1 4.6ZM7.3 14.2H6.1C5.93433 14.2 5.8 14.0657 5.8 13.9C5.8 13.7343 5.93433 13.6 6.1 13.6H7.3C7.46567 13.6 7.6 13.7343 7.6 13.9C7.6 14.0657 7.46567 14.2 7.3 14.2ZM7.3 12.4H6.1C5.93433 12.4 5.8 12.2657 5.8 12.1C5.8 11.9343 5.93433 11.8 6.1 11.8H7.3C7.46567 11.8 7.6 11.9343 7.6 12.1C7.6 12.2657 7.46567 12.4 7.3 12.4ZM7.3 10.6H6.1C5.93433 10.6 5.8 10.4657 5.8 10.3C5.8 10.1343 5.93433 10 6.1 10H7.3C7.46567 10 7.6 10.1343 7.6 10.3C7.6 10.4657 7.46567 10.6 7.3 10.6ZM7.3 8.8H6.1C5.93433 8.8 5.8 8.66567 5.8 8.5C5.8 8.33433 5.93433 8.2 6.1 8.2H7.3C7.46567 8.2 7.6 8.33433 7.6 8.5C7.6 8.66567 7.46567 8.8 7.3 8.8ZM10.3 14.2H9.1C8.93433 14.2 8.8 14.0657 8.8 13.9C8.8 13.7343 8.93433 13.6 9.1 13.6H10.3C10.4657 13.6 10.6 13.7343 10.6 13.9C10.6 14.0657 10.4657 14.2 10.3 14.2ZM10.3 12.4H9.1C8.93433 12.4 8.8 12.2657 8.8 12.1C8.8 11.9343 8.93433 11.8 9.1 11.8H10.3C10.4657 11.8 10.6 11.9343 10.6 12.1C10.6 12.2657 10.4657 12.4 10.3 12.4ZM10.3 10.6H9.1C8.93433 10.6 8.8 10.4657 8.8 10.3C8.8 10.1343 8.93433 10 9.1 10H10.3C10.4657 10 10.6 10.1343 10.6 10.3C10.6 10.4657 10.4657 10.6 10.3 10.6ZM10.3 8.8H9.1C8.93433 8.8 8.8 8.66567 8.8 8.5C8.8 8.33433 8.93433 8.2 9.1 8.2H10.3C10.4657 8.2 10.6 8.33433 10.6 8.5C10.6 8.66567 10.4657 8.8 10.3 8.8ZM13.3 8.8H12.1C11.9343 8.8 11.8 8.66567 11.8 8.5C11.8 8.33433 11.9343 8.2 12.1 8.2H13.3C13.4657 8.2 13.6 8.33433 13.6 8.5C13.6 8.66567 13.4657 8.8 13.3 8.8ZM16.3 8.8H15.1C14.9343 8.8 14.8 8.66567 14.8 8.5C14.8 8.33433 14.9343 8.2 15.1 8.2H16.3C16.4657 8.2 16.6 8.33433 16.6 8.5C16.6 8.66567 16.4657 8.8 16.3 8.8ZM17.8 6.4H4.6V5.2H6.4V5.5C6.4 5.66567 6.53433 5.8 6.7 5.8C6.86567 5.8 7 5.66567 7 5.5V5.2H9.4V5.5C9.4 5.66567 9.53433 5.8 9.7 5.8C9.86567 5.8 10 5.66567 10 5.5V5.2H12.4V5.5C12.4 5.66567 12.5343 5.8 12.7 5.8C12.8657 5.8 13 5.66567 13 5.5V5.2H15.4V5.5C15.4 5.66567 15.5343 5.8 15.7 5.8C15.8657 5.8 16 5.66567 16 5.5V5.2H17.8V6.4Z" fill="#2C67AB"/>
</svg>
