<svg width="24" height="24" viewBox="0 0 24 24" fill="none" xmlns="http://www.w3.org/2000/svg">
  <path d="M15.3296 7.79053C14.216 7.9633 13.0641 8.05932 11.912 8.05932C10.7599 8.05932 9.60803 7.96329 8.4944 7.79053C6.40163 9.23053 5 11.9377 5 15.0673C5 19.6945 8.0912 21.2497 11.912 21.2497C15.7328 21.2497 18.824 19.6946 18.824 15.0673C18.824 11.9377 17.4223 9.23053 15.3296 7.79053ZM12.5841 17.6785V18.3889C12.5841 18.5425 12.4689 18.6577 12.3153 18.6577H11.528C11.3744 18.6577 11.2592 18.5425 11.2592 18.3889V17.6977C10.4528 17.6017 9.80008 16.9489 9.72321 16.1232C9.72321 16.0465 9.74237 15.9696 9.79996 15.912C9.85755 15.8544 9.93442 15.816 10.0112 15.816H10.8176C10.952 15.816 11.0479 15.912 11.0864 16.0272C11.1248 16.2193 11.2976 16.3727 11.5088 16.3727H12.2C12.5648 16.3727 12.872 16.1039 12.9103 15.7776C12.9295 15.5855 12.8719 15.3936 12.7376 15.2591C12.6031 15.1247 12.4303 15.0479 12.2384 15.0479H11.72C10.6448 15.0479 9.72322 14.2607 9.62719 13.2431C9.53116 12.1871 10.2417 11.2655 11.2593 11.0735V10.3823C11.2593 10.2286 11.3744 10.1135 11.528 10.1135H12.3153C12.4689 10.1135 12.5841 10.2286 12.5841 10.3823V11.0735C13.4096 11.1695 14.0432 11.8223 14.1201 12.6479C14.1201 12.7247 14.101 12.8015 14.0434 12.8591C13.9858 12.9167 13.9089 12.9552 13.8322 12.9552H13.0258C12.8913 12.9552 12.7761 12.8591 12.757 12.7439C12.7185 12.5519 12.5458 12.3984 12.3346 12.3984H11.6434C11.2785 12.3984 10.9713 12.6672 10.933 12.9936C10.9139 13.1856 10.9714 13.3775 11.1058 13.512C11.2402 13.6465 11.413 13.7424 11.6049 13.7424H12.2001C12.7568 13.7424 13.3137 13.992 13.6977 14.3951C14.0817 14.8175 14.2737 15.3743 14.2161 15.9503C14.1393 16.7761 13.4672 17.4865 12.5841 17.6785V17.6785Z" fill="#2D63A9"/>
  <path d="M8.99353 6.46579C9.89593 6.60026 10.8751 6.677 11.912 6.677C12.9487 6.677 13.928 6.60026 14.8304 6.46579L15.5599 3.89303C15.7135 3.35543 15.2144 2.87543 14.6766 3.02906C12.8719 3.60496 10.9518 3.60496 9.14702 3.04821C8.60942 2.87544 8.11029 3.37459 8.26375 3.91218L8.99353 6.46579Z" fill="#2D63A9"/>
</svg>
