<svg width="19" height="14" viewBox="0 0 19 14" fill="none" xmlns="http://www.w3.org/2000/svg">
  <path d="M18.9007 11.3792V13.0592H3.92917e-06V11.2813C-0.000933579 10.9058 0.16594 10.5495 0.455078 10.3098C1.47494 9.48683 2.57195 8.76415 3.73056 8.15185C3.80543 8.32662 4.5312 9.99511 4.99392 10.6997V10.6996C5.00035 10.7128 5.01375 10.7212 5.02848 10.7212C5.04321 10.7212 5.0566 10.7128 5.06303 10.6996C5.15705 10.4174 5.51999 9.43808 6.07096 9.50531H6.0711C6.08837 9.51053 6.10686 9.50223 6.11449 9.48589C6.12212 9.46969 6.11676 9.45013 6.10176 9.44009C5.68512 9.10795 4.62909 8.2535 4.22784 7.77737V6.62732C4.04918 6.32357 3.92744 5.98981 3.86877 5.64229C3.73056 5.63078 3.55002 5.43872 3.35421 4.74953C3.10269 3.86252 3.33881 3.68588 3.56729 3.68773C3.44635 3.1693 3.13913 1.36837 4.47936 0.550454C4.31824 0.414381 4.22489 0.214293 4.22396 0.00335712C4.22396 0.00335712 5.75999 0.176126 6.49151 0.0245181C7.22303 -0.127224 8.02754 0.452678 8.15235 1.01143C8.15235 1.01143 9.6518 1.01143 9.07017 3.68987C9.30441 3.68022 9.55981 3.84161 9.30053 4.75166C9.10848 5.44098 8.91657 5.63493 8.78597 5.64443V5.64429C8.72758 5.99185 8.60584 6.32558 8.4269 6.62922V7.76977C8.02363 8.24589 6.96962 9.10221 6.55109 9.43249C6.53609 9.44253 6.5306 9.46195 6.53837 9.47829C6.546 9.49463 6.56449 9.50293 6.58176 9.49771C7.13273 9.43048 7.49568 10.4078 7.58969 10.6919C7.59612 10.7052 7.60965 10.7136 7.62425 10.7136C7.63898 10.7136 7.6525 10.7052 7.65893 10.6919C8.12165 9.98734 8.84741 8.31886 8.92229 8.14411C9.70202 8.55941 10.4555 9.02227 11.1782 9.53042C11.4217 9.44926 11.659 9.35122 11.8887 9.23658L11.9309 9.21167C12.0507 9.13412 12.1229 9.00113 12.1229 8.85835V8.14223C10.2279 8.15951 9.66924 7.34735 9.66924 7.34735C9.66924 7.34735 10.7522 7.33007 10.685 4.46735C10.6176 1.60463 11.9251 1.14191 12.4167 0.963348C13.847 0.419988 14.5651 1.28397 14.5651 1.28397C16.224 1.13036 16.6772 2.94282 16.4851 5.005C16.2931 7.06712 17.4145 7.38961 17.4145 7.38961C16.6369 8.18449 14.9953 8.13454 14.9953 8.13454V8.8738H14.9952C14.9952 9.01657 15.0673 9.14956 15.1872 9.22712L15.2372 9.25779C15.8132 9.55926 16.9959 9.87226 17.019 9.88378C17.406 9.98878 17.7822 10.1309 18.1421 10.3081C18.564 10.5091 18.8511 10.9147 18.9005 11.3794L18.9007 11.3792Z" fill="#272525"/>
</svg>
